<svg xmlns="http://www.w3.org/2000/svg" width="24" height="24" viewBox="0 0 24 24"><rect width="24" height="24" fill="none"/><path d="M20,4H19V3a1,1,0,0,0-2,0V4H7V3A1,1,0,0,0,5,3V4H4A3,3,0,0,0,1,7V19a3,3,0,0,0,3,3H20a3,3,0,0,0,3-3V7a3,3,0,0,0-3-3ZM3,7A1,1,0,0,1,4,6H20a1,1,0,0,1,1,1V8H3ZM21,19a1,1,0,0,1-1,1H4a1,1,0,0,1-1-1V10H21Z" fill="#0e1317" fill-rule="evenodd"/><rect width="3" height="3" rx="0.8" transform="translate(5 12)" fill="#0e1317"/><rect width="3" height="3" rx="0.8" transform="translate(10 12)" fill="#0e1317"/></svg>