<svg xmlns="http://www.w3.org/2000/svg" width="15" height="15" viewBox="0 0 15 15"><rect width="15" height="15" fill="none"/><g transform="translate(1.095 1.25)"><path d="M8.381,3.244A5,5,0,0,0,3.969,5.894a.635.635,0,0,1-1.107-.624,6.375,6.375,0,0,1,2.394-2.45A6.25,6.25,0,1,1,2.375,9.982a.625.625,0,1,1,1.2-.35A5,5,0,1,0,8.381,3.244Z" transform="translate(-1.815 -1.985)" fill="#8d8d8d" fill-rule="evenodd"/><path d="M5.973,6.325a.625.625,0,0,0-.762-.462l-1.956.525L2.729,4.45a.625.625,0,1,0-1.213.306l.625,2.256a.937.937,0,0,0,1.131.681l2.287-.581a.625.625,0,0,0,.412-.788Z" transform="translate(-1.495 -2.728)" fill="#8d8d8d" fill-rule="evenodd"/></g></svg>