<svg xmlns="http://www.w3.org/2000/svg" width="17" height="17" viewBox="0 0 17 17"><rect width="17" height="17" fill="none"/><g transform="translate(2.839 0.737)"><path d="M6.266,12.333C7.406,14.147,8.632,15.733,9,16.2a.843.843,0,0,0,1.332,0c.368-.467,1.594-2.054,2.734-3.867A22.362,22.362,0,0,0,14.61,9.5a6.772,6.772,0,0,0,.708-2.642A5.766,5.766,0,0,0,9.652,1,5.766,5.766,0,0,0,4,6.9a6.772,6.772,0,0,0,.708,2.642,22.362,22.362,0,0,0,1.558,2.791Zm3.4-9.917a4.349,4.349,0,0,1,4.25,4.441,5.511,5.511,0,0,1-.6,2.061,21.25,21.25,0,0,1-1.452,2.706c-.786,1.247-1.665,2.422-2.2,3.138-.538-.708-1.417-1.891-2.2-3.173A21.25,21.25,0,0,1,6.011,8.962a5.511,5.511,0,0,1-.6-2.061,4.349,4.349,0,0,1,4.25-4.441Z" transform="translate(-3.998 -1)" fill="#8d8d8d"/><circle cx="1.417" cy="1.417" r="1.417" transform="translate(4.252 4.292)" fill="#8d8d8d"/></g></svg>